<?xml version="1.0" encoding="UTF-8" standalone="no"?>
<!-- Created with Inkscape (http://www.inkscape.org/) -->

<svg
   xmlns:dc="http://purl.org/dc/elements/1.1/"
   xmlns:cc="http://creativecommons.org/ns#"
   xmlns:rdf="http://www.w3.org/1999/02/22-rdf-syntax-ns#"
   xmlns:svg="http://www.w3.org/2000/svg"
   xmlns="http://www.w3.org/2000/svg"
   version="1.1"
   width="48"
   height="48"
   viewBox="0 0 48 48"
   id="Layer_1"
   xml:space="preserve"><metadata
     id="metadata3001"><rdf:RDF><cc:Work
         rdf:about=""><dc:format>image/svg+xml</dc:format><dc:type
           rdf:resource="http://purl.org/dc/dcmitype/StillImage" /><dc:title></dc:title></cc:Work></rdf:RDF></metadata><defs
     id="defs2999" /><path
     d="m 41,46 0,0 c 0,0.553 -0.447,1 -1,1 H 12 l 0,0 C 9.238,47 7,44.762 7,42 V 6 C 7,3.239 9.238,1 12,1 l 0,0 h 26 l 0,0 c 0.414,0 0.77,0.252 0.922,0.611 C 38.972,1.73 39,1.862 39,2 v 0 7 l 0,0 h 1 l 0,0 c 0.278,0 0.529,0.115 0.711,0.298 C 40.889,9.479 41,9.726 41,10 c 0,0 0,0 0,0 v 36 z m -32,-4 0,0 0,0 c 0,1.657 1.344,3 3,3 h 3 V 11 h -3 l 0,0 C 10.869,11 9.838,10.61 9,9.978 V 42 z M 37,9 V 3 H 12 l 0,0 0,0 c -1.656,0 -3,1.343 -3,3 0,1.657 1.344,3 3,3 h 25 l 0,0 z m 2,2 H 17 V 45 H 39 V 11 z M 12,7 C 11.447,7 11,6.552 11,6 11,5.448 11.447,5 12,5 h 22 c 0.553,0 1,0.448 1,1 0,0.552 -0.447,1 -1,1 H 12 z"
     id="path2995"
     style="fill:#64adf9;fill-opacity:1;fill-rule:evenodd" /></svg>