<?xml version="1.0" encoding="UTF-8" standalone="no"?>
<!-- Created with Inkscape (http://www.inkscape.org/) -->

<svg
   xmlns:dc="http://purl.org/dc/elements/1.1/"
   xmlns:cc="http://creativecommons.org/ns#"
   xmlns:rdf="http://www.w3.org/1999/02/22-rdf-syntax-ns#"
   xmlns:svg="http://www.w3.org/2000/svg"
   xmlns="http://www.w3.org/2000/svg"
   version="1.1"
   width="48"
   height="48"
   viewBox="0 0 48 48"
   id="Layer_1"
   xml:space="preserve"><metadata
     id="metadata4313"><rdf:RDF><cc:Work
         rdf:about=""><dc:format>image/svg+xml</dc:format><dc:type
           rdf:resource="http://purl.org/dc/dcmitype/StillImage" /><dc:title></dc:title></cc:Work></rdf:RDF></metadata><defs
     id="defs4311" /><path
     d="M 43,35 H 29.195 c 0.595,3.301 2.573,5.572 4.401,7 H 36 c 0.553,0 1,0.447 1,1 0,0.553 -0.447,1 -1,1 H 12 c -0.553,0 -1,-0.447 -1,-1 0,-0.553 0.447,-1 1,-1 h 2.403 c 1.827,-1.428 3.807,-3.699 4.401,-7 H 5 C 2.791,35 1,33.209 1,31 V 8 C 1,5.791 2.791,4 5,4 h 38 c 2.209,0 4,1.791 4,4 v 23 c 0,2.209 -1.791,4 -4,4 z m -25.603,7 h 13.205 c -1.595,-1.682 -3.015,-3.976 -3.459,-7 h -6.287 c -0.444,3.024 -1.864,5.318 -3.459,7 z M 45,8 C 45,6.896 44.104,6 43,6 H 5 C 3.896,6 3,6.896 3,8 v 19 l 0,0 H 45 V 8 z m 0,21 H 3 l 0,0 v 2 c 0,1.104 0.896,2 2,2 h 14 l 0,0 h 10 l 0,0 h 14 c 1.104,0 2,-0.896 2,-2 v -2 z m -21,3 c -0.553,0 -1,-0.447 -1,-1 0,-0.553 0.447,-1 1,-1 0.553,0 1,0.447 1,1 0,0.553 -0.447,1 -1,1 z"
     id="path4307"
     style="fill:#64adff;fill-opacity:0.94117647;fill-rule:evenodd" /></svg>