<?xml version="1.0" encoding="UTF-8" standalone="no"?>
<!-- Created with Inkscape (http://www.inkscape.org/) -->

<svg
   xmlns:dc="http://purl.org/dc/elements/1.1/"
   xmlns:cc="http://creativecommons.org/ns#"
   xmlns:rdf="http://www.w3.org/1999/02/22-rdf-syntax-ns#"
   xmlns:svg="http://www.w3.org/2000/svg"
   xmlns="http://www.w3.org/2000/svg"
   version="1.1"
   width="48"
   height="48"
   viewBox="0 0 48 48"
   id="Layer_1"
   xml:space="preserve"><metadata
     id="metadata4839"><rdf:RDF><cc:Work
         rdf:about=""><dc:format>image/svg+xml</dc:format><dc:type
           rdf:resource="http://purl.org/dc/dcmitype/StillImage" /><dc:title></dc:title></cc:Work></rdf:RDF></metadata><defs
     id="defs4837" /><path
     d="M 33,47 H 15 c -2.209,0 -4,-1.791 -4,-4 V 5 c 0,-2.209 1.791,-4 4,-4 h 18 c 2.209,0 4,1.791 4,4 v 38 c 0,2.209 -1.791,4 -4,4 z M 35,5 C 35,3.896 34.104,3 33,3 H 15 C 13.896,3 13,3.896 13,5 V 9 H 35 V 5 z m 0,6 H 13 V 37 H 35 V 11 z m 0,28 H 13 v 4 c 0,1.104 0.896,2 2,2 h 18 c 1.104,0 2,-0.896 2,-2 v -4 z m -11,5 c -1.104,0 -2,-0.896 -2,-2 0,-1.104 0.896,-2 2,-2 1.104,0 2,0.896 2,2 0,1.104 -0.896,2 -2,2 z M 17,14 h 2 c 0.553,0 1,0.448 1,1 v 2 c 0,0.552 -0.447,1 -1,1 h -2 c -0.553,0 -1,-0.448 -1,-1 v -2 c 0,-0.552 0.447,-1 1,-1 z m 0,7 h 2 c 0.553,0 1,0.448 1,1 v 2 c 0,0.553 -0.447,1 -1,1 h -2 c -0.553,0 -1,-0.447 -1,-1 v -2 c 0,-0.552 0.447,-1 1,-1 z m 0,7 h 2 c 0.553,0 1,0.447 1,1 v 2 c 0,0.553 -0.447,1 -1,1 h -2 c -0.553,0 -1,-0.447 -1,-1 v -2 c 0,-0.553 0.447,-1 1,-1 z m 6,-14 h 2 c 0.553,0 1,0.448 1,1 v 2 c 0,0.552 -0.447,1 -1,1 h -2 c -0.553,0 -1,-0.448 -1,-1 v -2 c 0,-0.552 0.447,-1 1,-1 z m 0,7 h 2 c 0.553,0 1,0.448 1,1 v 2 c 0,0.553 -0.447,1 -1,1 h -2 c -0.553,0 -1,-0.447 -1,-1 v -2 c 0,-0.552 0.447,-1 1,-1 z m 0,7 h 2 c 0.553,0 1,0.447 1,1 v 2 c 0,0.553 -0.447,1 -1,1 h -2 c -0.553,0 -1,-0.447 -1,-1 v -2 c 0,-0.553 0.447,-1 1,-1 z m 6,-14 h 2 c 0.553,0 1,0.448 1,1 v 2 c 0,0.552 -0.447,1 -1,1 h -2 c -0.553,0 -1,-0.448 -1,-1 v -2 c 0,-0.552 0.447,-1 1,-1 z m 0,7 h 2 c 0.553,0 1,0.448 1,1 v 2 c 0,0.553 -0.447,1 -1,1 h -2 c -0.553,0 -1,-0.447 -1,-1 v -2 c 0,-0.552 0.447,-1 1,-1 z M 21,5 h 6 c 0.553,0 1,0.448 1,1 0,0.552 -0.447,1 -1,1 H 21 C 20.447,7 20,6.552 20,6 20,5.448 20.447,5 21,5 z"
     id="path4833"
     style="fill:#64adff;fill-opacity:0.94117647;fill-rule:evenodd" /></svg>