<?xml version="1.0" encoding="UTF-8" standalone="no"?>
<!-- Created with Inkscape (http://www.inkscape.org/) -->

<svg
   xmlns:dc="http://purl.org/dc/elements/1.1/"
   xmlns:cc="http://creativecommons.org/ns#"
   xmlns:rdf="http://www.w3.org/1999/02/22-rdf-syntax-ns#"
   xmlns:svg="http://www.w3.org/2000/svg"
   xmlns="http://www.w3.org/2000/svg"
   version="1.1"
   width="48"
   height="48"
   viewBox="0 0 48 48"
   id="Layer_1"
   xml:space="preserve"><metadata
     id="metadata6417"><rdf:RDF><cc:Work
         rdf:about=""><dc:format>image/svg+xml</dc:format><dc:type
           rdf:resource="http://purl.org/dc/dcmitype/StillImage" /><dc:title></dc:title></cc:Work></rdf:RDF></metadata><defs
     id="defs6415" /><path
     d="M 38,47 H 10 C 7.791,47 6,45.209 6,43 V 5 C 6,2.791 7.791,1 10,1 h 28 c 2.209,0 4,1.791 4,4 v 38 c 0,2.209 -1.791,4 -4,4 z M 40,5 C 40,3.896 39.104,3 38,3 H 10 C 8.896,3 8,3.896 8,5 v 38 c 0,1.104 0.896,2 2,2 h 28 c 1.104,0 2,-0.896 2,-2 V 5 z M 10,39 V 7 l 0,0 h 28 l 0,0 v 32 l 0,0 H 10 l 0,0 z m 2,-2 H 36 V 9 H 12 V 37 z M 32,16 h -2 c -0.553,0 -1,-0.448 -1,-1 v -2 c 0,-0.552 0.447,-1 1,-1 h 2 c 0.553,0 1,0.448 1,1 v 2 c 0,0.552 -0.447,1 -1,1 z m -7,7 h -2 c -0.553,0 -1,-0.447 -1,-1 v -2 c 0,-0.552 0.447,-1 1,-1 h 2 c 0.553,0 1,0.448 1,1 v 2 c 0,0.553 -0.447,1 -1,1 z m 0,-7 h -2 c -0.553,0 -1,-0.448 -1,-1 v -2 c 0,-0.552 0.447,-1 1,-1 h 2 c 0.553,0 1,0.448 1,1 v 2 c 0,0.552 -0.447,1 -1,1 z m -7,7 h -2 c -0.553,0 -1,-0.447 -1,-1 v -2 c 0,-0.552 0.447,-1 1,-1 h 2 c 0.553,0 1,0.448 1,1 v 2 c 0,0.553 -0.447,1 -1,1 z m 0,-7 h -2 c -0.553,0 -1,-0.448 -1,-1 v -2 c 0,-0.552 0.447,-1 1,-1 h 2 c 0.553,0 1,0.448 1,1 v 2 c 0,0.552 -0.447,1 -1,1 z M 23,4 h 2 V 6 H 23 V 4 z m 1,36 c 1.104,0 2,0.896 2,2 0,1.104 -0.896,2 -2,2 -1.104,0 -2,-0.896 -2,-2 0,-1.104 0.896,-2 2,-2 z"
     id="path6411"
     style="fill:#64adff;fill-opacity:0.94117647;fill-rule:evenodd" /></svg>