<?xml version="1.0" encoding="UTF-8" standalone="no"?>
<!-- Created with Inkscape (http://www.inkscape.org/) -->

<svg
   xmlns:dc="http://purl.org/dc/elements/1.1/"
   xmlns:cc="http://creativecommons.org/ns#"
   xmlns:rdf="http://www.w3.org/1999/02/22-rdf-syntax-ns#"
   xmlns:svg="http://www.w3.org/2000/svg"
   xmlns="http://www.w3.org/2000/svg"
   version="1.1"
   width="48"
   height="48"
   viewBox="0 0 48 48"
   id="Layer_1"
   xml:space="preserve"><metadata
     id="metadata3787"><rdf:RDF><cc:Work
         rdf:about=""><dc:format>image/svg+xml</dc:format><dc:type
           rdf:resource="http://purl.org/dc/dcmitype/StillImage" /><dc:title></dc:title></cc:Work></rdf:RDF></metadata><defs
     id="defs3785" /><path
     d="M 46,37 H 2 C 1.447,37 1,36.553 1,36 V 8 C 1,7.448 1.447,7 2,7 h 44 c 0.553,0 1,0.448 1,1 v 28 c 0,0.553 -0.447,1 -1,1 z M 45,9 H 3 V 35 H 45 V 9 z m -24,7 c 0.214,0 0.4,0.082 0.563,0.196 l 7.771,4.872 C 29.72,21.205 30,21.566 30,22 c 0,0.325 -0.165,0.601 -0.405,0.783 l -7.974,4.981 C 21.449,27.904 21.238,28 21,28 20.447,28 20,27.553 20,27 V 17 c 0,-0.552 0.447,-1 1,-1 z m -6,23 h 18 c 0.553,0 1,0.447 1,1 0,0.553 -0.447,1 -1,1 H 15 c -0.553,0 -1,-0.447 -1,-1 0,-0.553 0.447,-1 1,-1 z"
     id="path3781"
     style="fill:#64adff;fill-opacity:0.94117647;fill-rule:evenodd" /></svg>